<svg width="512" height="512" viewBox="0 0 512 512" fill="none" xmlns="http://www.w3.org/2000/svg">
<rect width="512" height="512" fill="#030A1A"/>
<path d="M40.411 231.098C40.411 223.658 42.204 217.968 45.7901 214.029C49.3761 210.003 54.6676 207.99 61.6647 207.99C68.6618 207.99 73.9533 210.003 77.5393 214.029C81.1254 217.968 82.9184 223.658 82.9184 231.098V233.987H69.274V230.179C69.274 224.14 66.8688 221.12 62.0583 221.12C57.2478 221.12 54.8425 224.14 54.8425 230.179C54.8425 233.593 55.8047 236.832 57.7288 239.896C59.653 242.872 61.9708 245.585 64.6822 248.036C67.481 250.487 70.2798 253.069 73.0787 255.783C75.8776 258.409 78.2391 261.735 80.1632 265.762C82.0874 269.701 83.0496 274.077 83.0496 278.892C83.0496 286.332 81.2128 292.066 77.5393 296.092C73.8659 300.031 68.5306 302 61.5335 302C54.5364 302 49.2011 300.031 45.5277 296.092C41.8542 292.066 40.0175 286.332 40.0175 278.892V273.246H53.6618V279.811C53.6618 285.763 56.1545 288.739 61.1399 288.739C66.1253 288.739 68.6181 285.763 68.6181 279.811C68.6181 276.397 67.6559 273.202 65.7318 270.226C63.8076 267.162 61.4461 264.405 58.6472 261.954C55.9358 259.503 53.1807 256.965 50.3819 254.339C47.583 251.625 45.2215 248.299 43.2973 244.36C41.3731 240.333 40.411 235.913 40.411 231.098ZM93.2858 209.04H107.717V279.942C107.717 285.894 110.21 288.87 115.195 288.87C120.181 288.87 122.674 285.894 122.674 279.942V209.04H136.318V279.023C136.318 286.463 134.481 292.197 130.808 296.223C127.134 300.162 121.799 302.132 114.802 302.132C107.805 302.132 102.469 300.162 98.796 296.223C95.1226 292.197 93.2858 286.463 93.2858 279.023V209.04ZM170.093 209.04C184.437 209.04 191.609 216.612 191.609 231.755V243.703C191.609 258.847 184.437 266.418 170.093 266.418H163.27V300.95H148.839V209.04H170.093ZM170.093 222.17H163.27V253.288H170.093C172.454 253.288 174.204 252.632 175.34 251.319C176.565 250.006 177.177 247.774 177.177 244.622V230.836C177.177 227.685 176.565 225.453 175.34 224.14C174.204 222.827 172.454 222.17 170.093 222.17ZM215.349 222.17V247.774H235.16V260.904H215.349V287.82H240.276V300.95H200.918V209.04H240.276V222.17H215.349ZM296.711 300.95H282.017C281.143 298.324 280.706 294.56 280.706 289.658V275.215C280.706 271.014 279.962 268.038 278.475 266.287C276.989 264.449 274.583 263.53 271.259 263.53H266.274V300.95H251.843V209.04H273.621C281.056 209.04 286.478 210.791 289.889 214.292C293.3 217.706 295.006 223.002 295.006 230.179V237.401C295.006 246.854 291.857 253.069 285.56 256.045C291.945 258.759 295.137 265.28 295.137 275.609V289.79C295.137 294.779 295.662 298.499 296.711 300.95ZM273.227 222.17H266.274V250.4H271.915C274.802 250.4 276.945 249.656 278.344 248.167C279.831 246.679 280.574 244.185 280.574 240.683V231.624C280.574 225.321 278.126 222.17 273.227 222.17ZM328.9 262.873V249.743H349.104V278.892C349.104 286.332 347.267 292.066 343.594 296.092C339.92 300.031 334.584 302 327.588 302C320.59 302 315.255 300.031 311.582 296.092C307.908 292.066 306.072 286.332 306.072 278.892V231.098C306.072 223.658 307.908 217.968 311.582 214.029C315.255 210.003 320.59 207.99 327.588 207.99C334.584 207.99 339.92 210.003 343.594 214.029C347.267 217.968 349.104 223.658 349.104 231.098V240.027H335.459V230.179C335.459 224.14 332.967 221.12 327.981 221.12C322.996 221.12 320.503 224.14 320.503 230.179V279.811C320.503 285.763 322.996 288.739 327.981 288.739C332.967 288.739 335.459 285.763 335.459 279.811V262.873H328.9ZM372.588 300.95V270.488L354.352 209.04H369.439L380.459 250.925L391.48 209.04H405.255L387.019 270.488V300.95H372.588ZM433.657 209.04L444.284 274.296L454.124 209.04H474.197V300.95H460.552V235.037L450.581 300.95H436.937L426.179 235.957V300.95H413.584V209.04H433.657Z" fill="white"/>
</svg>
